<svg xmlns="http://www.w3.org/2000/svg" xmlns:xlink="http://www.w3.org/1999/xlink" id="Layer_1" data-name="Layer 1" viewBox="0 0 534 140"><defs><style>.cls-1,.cls-3,.cls-5{fill:none}.cls-2{clip-path:url(#clip-path)}.cls-3,.cls-5{stroke:#000;stroke-width:.72px}.cls-3{stroke-miterlimit:10}.cls-4{fill:#fff}.cls-6,.cls-7{font-size:8.63px}.cls-6{font-family:Helvetica-Bold,Helvetica;font-weight:700}.cls-7,.cls-8{font-family:Helvetica,Helvetica}.cls-8{font-size:7.91px}</style><clipPath id="clip-path"><rect width="612" height="791.07" class="cls-1"/></clipPath></defs><title>AI vs AGI (1)</title><g class="cls-2"><polyline points="93.85 65.08 126.21 65.08 126.21 36.32 153.99 36.32" class="cls-3"/><polygon points="157.77 36.32 152.73 38.83 153.99 36.32 152.73 33.8 157.77 36.32"/><polygon points="157.77 36.32 152.73 38.83 153.99 36.32 152.73 33.8 157.77 36.32" class="cls-3"/><polyline points="93.85 65.08 126.21 65.08 126.21 101.04 153.99 101.04" class="cls-3"/><polygon points="157.77 101.04 152.73 103.56 153.99 101.04 152.73 98.52 157.77 101.04"/><polygon points="157.77 101.04 152.73 103.56 153.99 101.04 152.73 98.52 157.77 101.04" class="cls-3"/><rect width="86.3" height="43.15" x="7.55" y="43.51" class="cls-4"/><rect width="86.3" height="43.15" x="7.55" y="43.51" class="cls-5"/><text class="cls-6" transform="translate(46.01 63.29)">AI</text><text class="cls-7" transform="translate(18.19 73.35)">General purpose</text><line x1="273.64" x2="398.5" y1="36.32" y2="36.32" class="cls-3"/><polygon points="402.28 36.32 397.25 38.83 398.5 36.32 397.25 33.8 402.28 36.32"/><polygon points="402.28 36.32 397.25 38.83 398.5 36.32 397.25 33.8 402.28 36.32" class="cls-3"/><rect width="32.36" height="10.07" x="324.34" y="32.36" class="cls-4"/><text class="cls-7" transform="translate(324.34 40.27)">Struggle</text><rect width="115.06" height="43.15" x="158.57" y="14.74" class="cls-4"/><rect width="115.06" height="43.15" x="158.57" y="14.74" class="cls-5"/><text class="cls-6" transform="translate(211.42 34.52)">AI</text><text class="cls-7" transform="translate(183.6 44.59)">General purpose</text><line x1="273.64" x2="333.78" y1="101.04" y2="101.04" class="cls-3"/><polygon points="337.56 101.04 332.52 103.56 333.78 101.04 332.52 98.52 337.56 101.04"/><polygon points="337.56 101.04 332.52 103.56 333.78 101.04 332.52 98.52 337.56 101.04" class="cls-3"/><rect width="30.2" height="9.35" x="290.54" y="97.09" class="cls-4"/><text class="cls-8" transform="translate(290.54 104.28)">Success</text><rect width="115.06" height="43.15" x="158.57" y="79.47" class="cls-4"/><rect width="115.06" height="43.15" x="158.57" y="79.47" class="cls-5"/><text class="cls-6" transform="translate(169.47 99.24)">Machine Learning (ML)</text><text class="cls-7" transform="translate(179.77 109.31)">Application speciﬁc</text><rect width="115.06" height="43.15" x="338.36" y="79.47" class="cls-4"/><rect width="115.06" height="43.15" x="338.36" y="79.47" class="cls-5"/><text class="cls-6" transform="translate(391.21 99.24)">AI</text><text class="cls-7" transform="translate(345.41 109.31)">Mostly application-speciﬁc</text><rect width="115.06" height="43.15" x="403.09" y="14.74" class="cls-4"/><rect width="115.06" height="43.15" x="403.09" y="14.74" class="cls-5"/><text class="cls-6" transform="translate(452.58 34.52)">AGI</text><text class="cls-7" transform="translate(428.11 44.59)">General purpose</text></g></svg>